{
	"asset":{
		"generator":"Khronos glTF Blender I/O v4.5.47",
		"version":"2.0"
	},
	"extensionsUsed":[
		"KHR_materials_specular"
	],
	"scene":0,
	"scenes":[
		{
			"name":"Scene",
			"nodes":[
				4
			]
		}
	],
	"nodes":[
		{
			"mesh":0,
			"name":"earth_Earth_0"
		},
		{
			"children":[
				0
			],
			"name":"earth",
			"rotation":[
				-0.70710688829422,
				0,
				0,
				0.7071066498756409
			],
			"scale":[
				100,
				99.99999237060547,
				99.99999237060547
			],
			"translation":[
				-3709.267333984375,
				0,
				0
			]
		},
		{
			"children":[
				1
			],
			"name":"RootNode"
		},
		{
			"children":[
				2
			],
			"name":"PS1_Low Poly Earth.fbx",
			"rotation":[
				0.70710688829422,
				0,
				0,
				0.7071066498756409
			],
			"scale":[
				0.10000000149011612,
				0.10000001639127731,
				0.10000001639127731
			],
			"translation":[
				367.6199951171875,
				0,
				0
			]
		},
		{
			"children":[
				3
			],
			"name":"Sketchfab_model",
			"rotation":[
				-0.70710688829422,
				0,
				0,
				0.7071066498756409
			]
		}
	],
	"materials":[
		{
			"doubleSided":true,
			"extensions":{
				"KHR_materials_specular":{
					"specularFactor":0
				}
			},
			"name":"Earth",
			"pbrMetallicRoughness":{
				"baseColorTexture":{
					"index":0
				},
				"metallicFactor":0
			}
		}
	],
	"meshes":[
		{
			"name":"earth_Earth_0",
			"primitives":[
				{
					"attributes":{
						"POSITION":0,
						"NORMAL":1,
						"TEXCOORD_0":2
					},
					"indices":3,
					"material":0
				}
			]
		}
	],
	"textures":[
		{
			"sampler":0,
			"source":0
		}
	],
	"images":[
		{
			"mimeType":"image/jpeg",
			"name":"Earth_baseColor",
			"uri":"Earth_baseColor.jpg"
		}
	],
	"accessors":[
		{
			"bufferView":0,
			"componentType":5126,
			"count":559,
			"max":[
				6.386878967285156,
				6.381290912628174,
				6.089930057525635
			],
			"min":[
				-6.386873722076416,
				-6.381293296813965,
				-6.089930534362793
			],
			"type":"VEC3"
		},
		{
			"bufferView":1,
			"componentType":5126,
			"count":559,
			"type":"VEC3"
		},
		{
			"bufferView":2,
			"componentType":5126,
			"count":559,
			"type":"VEC2"
		},
		{
			"bufferView":3,
			"componentType":5123,
			"count":2880,
			"type":"SCALAR"
		}
	],
	"bufferViews":[
		{
			"buffer":0,
			"byteLength":6708,
			"byteOffset":0,
			"target":34962
		},
		{
			"buffer":0,
			"byteLength":6708,
			"byteOffset":6708,
			"target":34962
		},
		{
			"buffer":0,
			"byteLength":4472,
			"byteOffset":13416,
			"target":34962
		},
		{
			"buffer":0,
			"byteLength":5760,
			"byteOffset":17888,
			"target":34963
		}
	],
	"samplers":[
		{
			"magFilter":9728,
			"minFilter":9984
		}
	],
	"buffers":[
		{
			"byteLength":23648,
			"uri":"scene.bin"
		}
	]
}
